<svg class="icon" viewBox="0 0 1024 1024" version="1.1" xmlns="http://www.w3.org/2000/svg"
     width="40" height="40">
    <path d="M170.666667 896a85.333333 85.333333 0 0 1-85.333334-85.333333V384h853.333334v426.666667a85.333333 85.333333 0 0 1-85.333334 85.333333z m-64-85.333333a64 64 0 0 0 64 64h682.666666a64 64 0 0 0 64-64V405.333333H106.666667z m0-469.333334a10.666667 10.666667 0 0 1-10.666667-10.666666 10.666667 10.666667 0 0 1 10.666667-10.666667h810.666666a10.666667 10.666667 0 0 1 10.666667 10.666667 10.666667 10.666667 0 0 1-10.666667 10.666666z m597.333333-106.666666a10.666667 10.666667 0 0 1-10.666667-10.666667 10.666667 10.666667 0 0 1 10.666667-10.666667h170.666667a10.666667 10.666667 0 0 1 10.666666 10.666667 10.666667 10.666667 0 0 1-10.666666 10.666667z m-298.666667 0a10.666667 10.666667 0 0 1-10.666666-10.666667 10.666667 10.666667 0 0 1 10.666666-10.666667h170.666667a10.666667 10.666667 0 0 1 10.666667 10.666667 10.666667 10.666667 0 0 1-10.666667 10.666667z"
          fill="#C5C5C5"/>
    <path d="M128 149.333333a21.333333 21.333333 0 0 0-21.333333 21.333334v149.333333h213.333333V170.666667a21.333333 21.333333 0 0 0-21.333333-21.333334H128m0-21.333333h170.666667a42.666667 42.666667 0 0 1 42.666666 42.666667v170.666666H85.333333V170.666667a42.666667 42.666667 0 0 1 42.666667-42.666667z"
          fill="#1891FF"/>
</svg>
